<?xml version="1.0" encoding="UTF-8"?>
<svg version="1.1" xmlns="http://www.w3.org/2000/svg" width="1024" height="1024">
<path d="M0 0 C337.92 0 675.84 0 1024 0 C1024 337.92 1024 675.84 1024 1024 C686.08 1024 348.16 1024 0 1024 C0 686.08 0 348.16 0 0 Z " fill="#3070E0" transform="translate(0,0)"/>
<path d="M0 0 C337.92 0 675.84 0 1024 0 C1024 337.92 1024 675.84 1024 1024 C686.08 1024 348.16 1024 0 1024 C0 686.08 0 348.16 0 0 Z M205 107.625 C204.18442627 107.87733398 203.36885254 108.12966797 202.52856445 108.38964844 C187.3888756 113.28440224 173.8494485 120.70167182 161 130 C160.17371094 130.59425781 159.34742188 131.18851563 158.49609375 131.80078125 C134.18333248 150.02447887 117.4439301 174.58030422 107.625 203.1875 C107.39844727 203.83823486 107.17189453 204.48896973 106.93847656 205.15942383 C101.99016619 220.4638409 101.56418806 235.44633706 101.60559082 251.3707428 C101.60069478 253.71517412 101.59450169 256.05960303 101.58713293 258.40402788 C101.57250723 264.14153632 101.57168344 269.87892771 101.57690541 275.61644968 C101.58239579 282.49753828 101.57043531 289.37857015 101.55813476 296.25964602 C101.53328956 310.52385255 101.52870264 324.78802151 101.53060073 339.05224622 C101.53197655 350.0728399 101.52814275 361.09342062 101.52067566 372.11401176 C101.5196253 373.70024619 101.51857768 375.28648061 101.5175328 376.87271504 C101.51701345 377.66018342 101.51649411 378.44765181 101.51595903 379.25898287 C101.51543888 380.04793592 101.51491874 380.83688897 101.51438284 381.6497497 C101.51385885 382.44007753 101.51333486 383.23040535 101.51279498 384.04468251 C101.49822142 406.25898332 101.48992482 428.47327939 101.49454498 450.68758488 C101.49471694 451.52419608 101.49488889 452.36080729 101.49506606 453.22277036 C101.49595488 457.46253054 101.49689969 461.70229071 101.49786407 465.94205088 C101.4980551 466.78399858 101.49824613 467.62594627 101.49844296 468.49340753 C101.49883005 470.1960293 101.49922038 471.89865107 101.49961393 473.60127284 C101.50558103 500.08114145 101.49015455 526.5609226 101.45800781 553.04077148 C101.42187425 582.82950454 101.40260593 612.61818216 101.40754652 642.40693849 C101.40801645 645.58771828 101.40842672 648.76849808 101.40879822 651.94927788 C101.4089006 652.73239577 101.40900299 653.51551365 101.40910848 654.32236239 C101.41029985 666.10852466 101.39838146 677.89462672 101.37965393 689.68077278 C101.3583443 703.0979854 101.35464072 716.51507232 101.37395352 729.93229068 C101.38332552 736.77061986 101.38434627 743.60868443 101.36359787 750.44699669 C101.34477234 756.72126873 101.34952066 762.99508823 101.37214369 769.26934367 C101.37630034 771.52498047 101.37222986 773.78065277 101.35854775 776.03625191 C101.13685915 815.29350082 115.08820705 849.53208297 142 878 C142.75796875 878.82242188 143.5159375 879.64484375 144.296875 880.4921875 C154.59884434 891.29915534 166.93879284 898.9670423 180 906 C180.96164063 906.53367187 181.92328125 907.06734375 182.9140625 907.6171875 C201.8192997 917.66873235 223.33798297 922.17558499 244.6511488 922.13142776 C245.58523617 922.1334804 246.51932355 922.13553303 247.4817166 922.13764787 C250.60527139 922.143293 253.72878173 922.14186369 256.8523407 922.14044189 C259.11719447 922.14302697 261.38204779 922.14604053 263.64690048 922.1494453 C269.86636227 922.15750208 276.08581251 922.15930414 282.3052789 922.16004276 C288.32589339 922.16170531 294.34650197 922.16802507 300.36711316 922.17412117 C316.49336699 922.19016031 332.61961986 922.19608252 348.74588023 922.20086992 C356.38115286 922.20320842 364.01642475 922.2068114 371.6516968 922.2105653 C397.80904752 922.22340027 423.96639784 922.23411846 450.12375164 922.2375679 C451.76496714 922.23778953 453.40618264 922.23801132 455.04739814 922.23823325 C456.69249242 922.23845389 458.3375867 922.23867437 459.98268098 922.2388947 C463.2828062 922.23933724 466.58293142 922.23978436 469.88305664 922.24023438 C471.11041011 922.24039846 471.11041011 922.24039846 472.3625586 922.24056586 C498.87314563 922.24419368 525.38370526 922.26010363 551.8942818 922.28342474 C579.94916532 922.30805904 608.00403319 922.32174245 636.05892783 922.32293582 C639.14290576 922.32310726 642.22688367 922.32332268 645.31086159 922.32357025 C646.07017569 922.32362602 646.8294898 922.32368179 647.61181342 922.32373925 C659.79616903 922.3248867 671.98049639 922.33588275 684.16484248 922.35045731 C696.42928606 922.36487314 708.6936937 922.36803076 720.95814344 922.36001733 C727.59370641 922.35597245 734.22919503 922.35698067 740.86475182 922.37107468 C746.95287343 922.383887 753.04083038 922.38255217 759.128952 922.37048396 C761.31815976 922.36853957 763.50737948 922.37154635 765.69657048 922.38032833 C784.71358851 922.45171549 803.63060328 921.35235713 821.6875 914.9375 C822.81760498 914.5468335 823.94770996 914.15616699 825.11206055 913.75366211 C846.30144145 906.18162535 863.89719378 894.53779548 880 879 C880.71671875 878.33484375 881.4334375 877.6696875 882.171875 876.984375 C905.82305888 854.46844794 920.99683414 819.23094657 922.27475238 786.68262649 C922.42056715 780.65766922 922.40069229 774.63365163 922.38095093 768.60739136 C922.38441398 766.28511941 922.38918287 763.96284911 922.39513266 761.6405822 C922.40758308 755.30441046 922.40149952 748.96837538 922.39217401 742.63220334 C922.38458218 736.48647711 922.39409356 730.34076376 922.4016161 724.1950413 C922.41736161 710.86097664 922.41606496 697.52695527 922.40737936 684.19288656 C922.3998168 672.52489913 922.39786999 660.85692752 922.4014473 649.18893814 C922.40167645 648.41337056 922.40190561 647.63780298 922.40214171 646.83873335 C922.4030758 643.69005247 922.40403101 640.5413716 922.405021 637.39269074 C922.41418637 607.89001625 922.40589575 578.38736924 922.38973031 548.884699 C922.37549196 522.69997341 922.37677108 496.51529161 922.39111328 470.33056641 C922.4071922 440.87699434 922.41353904 411.42344653 922.40427649 381.96987069 C922.40331441 378.82772391 922.40237588 375.68557712 922.4014473 372.54343033 C922.40121006 371.76981553 922.40097283 370.99620074 922.40072841 370.19914307 C922.39732248 358.53996032 922.40129465 346.88079515 922.40888596 335.22161484 C922.41747771 321.96017849 922.41528935 308.69879199 922.39904372 295.43736182 C922.39103177 288.67488353 922.38804799 281.91249929 922.39799118 275.1500206 C922.40696444 268.95339008 922.40196181 262.75693008 922.38605852 256.56031491 C922.38272191 254.32505314 922.3843794 252.0897768 922.39168589 249.85452448 C922.42889687 237.5194515 921.87632318 226.03100786 919 214 C918.8080431 213.16870319 918.6160862 212.33740638 918.41831243 211.48091877 C912.71941031 188.31286046 901.18690147 167.43484762 885 150 C884.46358887 149.41976074 883.92717773 148.83952148 883.37451172 148.24169922 C857.72503643 120.81461085 821.20459819 103.31370955 783.50527352 101.90690574 C781.02926501 101.87109146 778.5550175 101.86342502 776.07875824 101.86857224 C774.6702849 101.86549328 774.6702849 101.86549328 773.23335755 101.86235213 C770.10522455 101.85672387 766.97713616 101.85813418 763.84899902 101.85955811 C761.57615626 101.85697208 759.30331396 101.85395826 757.03047228 101.8505547 C750.79833578 101.84250947 744.56621081 101.84069652 738.33406973 101.83995724 C732.29852311 101.83829301 726.26298236 101.83197203 720.22743902 101.82587883 C704.06721528 101.8098528 687.90699251 101.80391954 671.74676224 101.79913008 C664.09606295 101.79679085 656.44536441 101.79318786 648.79466571 101.7894347 C622.58491057 101.77660258 596.37515585 101.76588281 570.16539764 101.7624321 C568.5215033 101.76221047 566.87760895 101.76198869 565.23371461 101.76176675 C563.58594849 101.76154611 561.93818236 101.76132563 560.29041624 101.7611053 C556.98495197 101.76066276 553.6794877 101.76021564 550.37402344 101.75976562 C549.14468794 101.75960154 549.14468794 101.75960154 547.89051739 101.75943414 C521.32382535 101.75580451 494.75716062 101.73988629 468.19047903 101.71657526 C440.07581751 101.69195123 411.96117158 101.67825808 383.84649897 101.67706418 C380.75726986 101.67689274 377.66804075 101.67667731 374.57881165 101.67642975 C373.81820512 101.67637398 373.0575986 101.67631821 372.27394339 101.67626075 C360.06121027 101.67511261 347.8485053 101.66411088 335.63578167 101.64954269 C323.34922994 101.6351404 311.0627141 101.63196174 298.77615625 101.63998267 C292.12677427 101.6440323 285.4774665 101.6429971 278.82809067 101.62892532 C272.73095373 101.61614062 266.63398141 101.61742399 260.53684455 101.62951604 C258.34102053 101.63146511 256.14518466 101.62843148 253.94937724 101.61967167 C237.32062136 101.55757872 220.97923171 102.60280266 205 107.625 Z " fill="#FEFEFE" transform="translate(0,0)"/>
<path d="M0 0 C1.35192186 -0.00679667 1.35192186 -0.00679667 2.73115528 -0.01373065 C5.72177388 -0.02629244 8.71220845 -0.02475966 11.70285034 -0.02310181 C13.85880769 -0.02909193 16.01476291 -0.03589859 18.17071533 -0.04345703 C24.00519654 -0.06106838 29.83961902 -0.06581017 35.67412424 -0.0670886 C39.32160327 -0.06851276 42.96906748 -0.07278724 46.61654282 -0.07808304 C59.34714452 -0.09656254 72.07770442 -0.10475567 84.80831909 -0.10317993 C96.66792573 -0.10197697 108.52735083 -0.12311509 120.38691151 -0.15466726 C130.57994381 -0.1808178 140.77291673 -0.19154784 150.96598232 -0.19026911 C157.04936866 -0.18975941 163.13259333 -0.1954484 169.2159462 -0.21662521 C174.93372981 -0.23598849 180.65119708 -0.23614495 186.36899185 -0.22159195 C188.46519432 -0.21950087 190.5614165 -0.22422253 192.65758514 -0.23631287 C195.52290853 -0.25176769 198.38714121 -0.24245564 201.25244141 -0.22705078 C202.49126845 -0.24248147 202.49126845 -0.24248147 203.7551223 -0.25822389 C211.21004192 -0.16987631 217.12206773 2.36931682 222.40658569 7.70048523 C223.0707399 8.36058594 223.7348941 9.02068665 224.41917419 9.70079041 C225.11655197 10.41412033 225.81392975 11.12745026 226.53244019 11.86239624 C227.29129013 12.62226837 228.05014008 13.3821405 228.83198547 14.16503906 C231.32429723 16.66519873 233.80224404 19.17910785 236.28048706 21.69320679 C238.02013541 23.44286727 239.76075158 25.19156594 241.50228882 26.93934631 C246.0781488 31.5361032 250.64230911 36.1442975 255.2036438 40.75546265 C262.50040454 48.12757582 269.81585658 55.48115315 277.12934875 62.83666039 C279.67380684 65.39872093 282.21393606 67.9650075 284.75326538 70.53215027 C286.32413164 72.11624671 287.89505169 73.70028982 289.46603394 75.28427124 C290.16341171 75.99152847 290.86078949 76.69878571 291.57929993 77.42747498 C295.45381111 81.32768953 299.44121588 85.01431201 303.60387039 88.60447025 C306.48182472 91.12952751 309.19852116 93.80341634 311.91183472 96.50302124 C312.49833298 97.0829483 313.08483124 97.66287537 313.68910217 98.26037598 C315.60000892 100.1518129 317.50709219 102.04703448 319.41329956 103.94320679 C320.40054079 104.92433473 320.40054079 104.92433473 321.40772629 105.92528343 C324.88648981 109.38330553 328.36205142 112.8445104 331.83517456 116.30819702 C335.40176905 119.8637085 338.97989509 123.40737768 342.560709 126.94855976 C345.33337452 129.69497677 348.0970183 132.45034196 350.85837936 135.20812035 C352.17298593 136.51788808 353.49093958 137.82430605 354.81242752 139.12713051 C365.65358402 149.82453387 374.41307164 159.23647947 374.75091934 175.26828575 C374.7618815 177.65366527 374.76188022 180.03911058 374.75320435 182.42449951 C374.75632433 183.74326666 374.75944431 185.06203382 374.76265883 186.42076361 C374.77098312 190.06612593 374.76689234 193.7113831 374.7606864 197.35674572 C374.75615312 201.29412728 374.76315007 205.23149102 374.76864624 209.16886902 C374.77753302 216.87679784 374.77562127 224.58468768 374.76982096 232.29261802 C374.76530101 238.55903075 374.76469301 244.82543257 374.76686859 251.09184647 C374.76717506 251.984317 374.76748152 252.87678753 374.76779728 253.79630262 C374.76843674 255.60946404 374.76908517 257.42262546 374.76974246 259.23578687 C374.77544383 276.23307715 374.76889123 293.23034585 374.75814173 310.2276326 C374.74920946 324.80243116 374.75075596 339.37719786 374.75997925 353.95199585 C374.77069058 370.88608882 374.77489129 387.82016287 374.76875472 404.75425875 C374.76811764 406.56129686 374.7674889 408.36833497 374.76686859 410.17537308 C374.76656004 411.06441367 374.76625149 411.95345426 374.76593359 412.86943548 C374.76420901 419.12508295 374.76711671 425.38071838 374.7718277 431.63636398 C374.77744625 439.26471124 374.77589973 446.89301735 374.76526621 454.52135991 C374.76002214 458.4111892 374.75793109 462.30094999 374.76456451 466.19077873 C374.77055254 469.75617877 374.76720212 473.3214472 374.75660941 476.88683541 C374.75334005 478.77788817 374.75982087 480.66895016 374.76672387 482.55999315 C374.72678764 491.29010418 374.2425163 499.80183644 370.06173706 507.64242554 C369.65052612 508.43390991 369.23931519 509.22539429 368.81564331 510.04086304 C367.50074564 512.26487394 366.18050221 514.30370785 364.49923706 516.26742554 C363.83923706 516.26742554 363.17923706 516.26742554 362.49923706 516.26742554 C362.16923706 517.25742554 361.83923706 518.24742554 361.49923706 519.26742554 C350.05745022 529.0746714 336.94448433 529.41729823 322.60270691 529.40786743 C321.17803609 529.41045354 319.753366 529.41346739 318.32869691 529.41687083 C314.42273151 529.4249151 310.51678452 529.42672896 306.61081183 529.4274683 C302.39457371 529.42932333 298.17834505 529.43687288 293.96211243 529.44360352 C284.74714038 529.45716866 275.53217269 529.4632086 266.31719232 529.46761417 C260.5605887 529.47037945 254.80398675 529.4746173 249.04738426 529.47911835 C233.10081367 529.49130821 217.15424441 529.50160836 201.20766926 529.50499344 C199.67762591 529.50532279 199.67762591 529.50532279 198.11667259 529.50565879 C197.09424279 529.50587707 196.071813 529.50609535 195.01840049 529.50632024 C192.94666437 529.5067637 190.87492826 529.50721026 188.80319214 529.50765991 C187.26172243 529.50799206 187.26172243 529.50799206 185.68911191 529.50833091 C169.03987134 529.51227843 152.39067455 529.52973231 135.74145088 529.55301943 C118.63730189 529.57674928 101.53317486 529.58919602 84.42900914 529.59036136 C74.82992523 529.59127715 65.23089838 529.59700548 55.63183022 529.61518097 C47.45783699 529.63060393 39.28391847 529.63568943 31.10991345 529.62744287 C26.94234848 529.62354426 22.77493387 529.62442728 18.60738754 529.63850021 C14.78582801 529.65128641 10.96453108 529.65000058 7.14297166 529.6379095 C5.11912914 529.63504346 3.09528188 529.64685233 1.0714758 529.65933156 C-11.64045887 529.5909387 -22.477365 527.42526991 -32.50076294 519.26742554 C-40.75888035 510.85581152 -44.6604709 501.22697843 -44.6321907 489.57791138 C-44.63424334 488.79517414 -44.63629597 488.01243691 -44.63841081 487.20598036 C-44.64409242 484.56726675 -44.64262212 481.92860514 -44.64120483 479.28988647 C-44.64378782 477.38520338 -44.64680079 475.48052084 -44.65020823 473.57583904 C-44.65828959 468.32911242 -44.66006844 463.08239948 -44.6608057 457.83566737 C-44.66265433 452.18173654 -44.67020078 446.52781283 -44.67694092 440.87388611 C-44.69053362 428.503878 -44.69655064 416.13387313 -44.70095158 403.7638588 C-44.70371286 396.04087505 -44.70795005 388.31789256 -44.71245575 380.59490967 C-44.72465048 359.21578524 -44.73498422 337.83666246 -44.73833084 316.45753479 C-44.73855247 315.07486329 -44.73877426 313.6921918 -44.73899619 312.3095203 C-44.73921683 310.92351727 -44.73943732 309.53751423 -44.73965764 308.15151119 C-44.74010019 305.37097613 -44.74054731 302.59044107 -44.74099731 299.80990601 C-44.74110671 299.12049449 -44.7412161 298.43108298 -44.7413288 297.72078021 C-44.74495807 275.37503703 -44.76087256 253.02932632 -44.78418768 230.68359557 C-44.80879679 207.05441524 -44.8224975 183.42525889 -44.82369876 159.79606438 C-44.82461552 146.91723733 -44.83036798 134.03845279 -44.84851837 121.15963745 C-44.86392157 110.19133466 -44.86903856 99.22308749 -44.86078027 88.25477594 C-44.85687435 82.65943335 -44.85780062 77.06420277 -44.87183762 71.46887398 C-44.88457994 66.34266871 -44.88337596 61.21665959 -44.8712469 56.09045458 C-44.86929048 54.23976536 -44.87236581 52.38906223 -44.88109127 50.53839254 C-44.94948722 35.04588601 -43.98345264 22.19963326 -32.77029419 10.45492554 C-23.4236825 1.89967456 -12.32579947 -0.04647484 0 0 Z " fill="#FEFEFE" transform="translate(346.5007629394531,244.73257446289063)"/>
<path d="M0 0 C0.89340552 -0.00569124 1.78681104 -0.01138248 2.70728946 -0.01724619 C3.68985886 -0.01842606 4.67242826 -0.01960594 5.68477249 -0.02082157 C6.72778621 -0.02590939 7.77079993 -0.03099721 8.84542012 -0.03623921 C12.35756373 -0.05199689 15.86968671 -0.06049747 19.38185501 -0.06893253 C21.89307665 -0.07846819 24.40429696 -0.08835922 26.9155159 -0.09858036 C34.46348239 -0.12728216 42.01145174 -0.14704963 49.55945289 -0.16397271 C51.69129685 -0.16876819 53.82314029 -0.17375144 55.95498371 -0.17877793 C69.19359146 -0.20974701 82.43220359 -0.23643194 95.6708374 -0.25319672 C98.73694491 -0.2571462 101.80305235 -0.2611492 104.8691597 -0.2652216 C105.6312244 -0.26622996 106.39328911 -0.26723832 107.17844668 -0.26827724 C119.52469193 -0.28528586 131.87073681 -0.32639787 144.21688423 -0.37724458 C156.8923615 -0.42901829 169.56773571 -0.45813852 182.24331784 -0.4653936 C189.36028687 -0.47005592 196.47692763 -0.48480751 203.59379196 -0.5251379 C210.28827876 -0.56302882 216.98210682 -0.57043691 223.67671967 -0.55713177 C226.13456716 -0.55718583 228.59243906 -0.5675286 231.05019379 -0.5888834 C234.40481616 -0.61647418 237.75738064 -0.60709476 241.11201859 -0.58844852 C242.57248836 -0.61364092 242.57248836 -0.61364092 244.06246257 -0.63934225 C249.86539822 -0.55868361 253.0537749 0.43908111 257.2963593 4.46228546 C260.51335712 8.44205786 261.10521144 11.82275442 260.95705032 16.8273077 C260.4507662 20.66987435 259.19094784 23.23785366 256.65236282 26.1398077 C250.82984013 30.32618187 245.13418344 30.71125641 238.16380692 30.64101315 C237.13214972 30.64654754 236.10049252 30.65208194 235.03757298 30.65778404 C231.59365484 30.67135642 228.15046568 30.65643933 224.70656204 30.64151669 C222.23238696 30.64530103 219.758214 30.65080203 217.28404617 30.65788937 C211.26983221 30.67039638 205.25590219 30.66428647 199.24171577 30.64921378 C192.23469308 30.63232341 185.22772238 30.63556766 178.22068562 30.63930786 C165.71788841 30.64518122 153.21519205 30.63103434 140.71242142 30.60636044 C128.58542987 30.58243089 116.45857297 30.57536083 104.33156204 30.58585262 C91.11696564 30.59726491 77.90243146 30.59918886 64.68783581 30.58475453 C63.27855182 30.58322872 61.86926783 30.58170837 60.45998383 30.58019352 C59.76663221 30.57943571 59.0732806 30.57867789 58.35891833 30.57789711 C53.47646735 30.57315749 48.59404418 30.57500337 43.71159363 30.57925892 C37.14027636 30.58470314 30.56911846 30.57393269 23.99782562 30.55230427 C21.58473464 30.54673477 19.17162574 30.54627257 16.75853348 30.55125713 C13.4677983 30.55720271 10.17763506 30.54471815 6.88695145 30.52748775 C5.450574 30.53650282 5.450574 30.53650282 3.98517883 30.54570001 C-1.93549586 30.48922562 -6.43280757 29.79846464 -10.99216843 25.6398077 C-14.50292982 21.13100377 -15.70709529 17.97662363 -15.63279343 12.2023077 C-15.03937821 7.9102086 -12.43518635 5.09553273 -9.28513718 2.3273077 C-6.15902083 0.41130091 -3.58202084 0.01331653 0 0 Z " fill="#2E6FDF" transform="translate(389.3476371765137,543.8601922988892)"/>
<path d="M0 0 C1.04542813 -0.00538554 2.09085627 -0.01077108 3.16796404 -0.01631981 C6.67635 -0.03064468 10.18436106 -0.02348433 13.69276428 -0.01637268 C16.20590519 -0.02207385 18.71904352 -0.02903713 21.23217773 -0.03717041 C27.35302073 -0.05327709 33.47372494 -0.05519682 39.59458273 -0.04995751 C44.56963275 -0.04591605 49.54465244 -0.04735907 54.519701 -0.05270576 C55.58182504 -0.0538284 55.58182504 -0.0538284 56.66540613 -0.05497371 C58.10387608 -0.05650519 59.54234602 -0.05804353 60.98081595 -0.05958868 C74.47043513 -0.07331656 87.95999632 -0.067874 101.44961417 -0.05640347 C113.7898996 -0.04647067 126.13003509 -0.05941199 138.47029739 -0.08333766 C151.14245933 -0.10772165 163.81455142 -0.11733827 176.48673636 -0.11068493 C183.60074922 -0.10719115 190.71464676 -0.10943515 197.82864189 -0.12693596 C204.51733734 -0.14318644 211.20570038 -0.13848728 217.89440346 -0.11963081 C220.35103677 -0.11593553 222.80769119 -0.11908058 225.26430511 -0.1295166 C228.61444372 -0.14266326 231.96362377 -0.13123406 235.3137207 -0.11352539 C236.77651338 -0.1279329 236.77651338 -0.1279329 238.26885742 -0.14263147 C243.93186586 -0.08091965 247.25033782 0.56432591 251.72035217 4.38768005 C255.37570602 8.52400151 256.37016579 11.76174992 256.10707092 17.1415863 C255.27979329 21.94648164 253.16269383 25.30592381 249.22035217 28.26268005 C245.52230936 29.92679932 242.3535921 30.51239279 238.30934334 30.52190113 C236.98622381 30.5285879 236.98622381 30.5285879 235.63637459 30.53540975 C234.67159971 30.53522539 233.70682482 30.53504102 232.71281433 30.53485107 C231.17045508 30.54036611 231.17045508 30.54036611 229.59693706 30.54599255 C226.14083734 30.5570329 222.68476768 30.5608738 219.22865295 30.56468201 C216.75507003 30.57094624 214.28148805 30.577593 211.8079071 30.58459473 C204.3790057 30.60382053 196.95011229 30.61442119 189.52119333 30.62332252 C186.02233085 30.62770752 182.52346989 30.63307366 179.02460861 30.63831139 C167.39392219 30.65531907 155.7632367 30.66981437 144.13253975 30.67706013 C141.11574935 30.67896999 138.09895895 30.68089033 135.08216858 30.68284607 C133.95747 30.68357168 133.95747 30.68357168 132.81005023 30.68431195 C120.65724111 30.69261661 108.50453028 30.7179629 96.3517641 30.75042675 C83.87400958 30.78348709 71.39630505 30.80150782 58.9185065 30.80470437 C51.91289029 30.80687007 44.90741756 30.81562769 37.90184402 30.84116554 C31.31417176 30.86512483 24.72671156 30.86870473 18.13898849 30.85840416 C15.71943554 30.85790721 13.29987013 30.86427431 10.88035583 30.87796021 C7.58054365 30.89558334 4.2816692 30.88861954 0.9818573 30.87542725 C-0.45861286 30.89188112 -0.45861286 30.89188112 -1.92818344 30.90866739 C-7.55876283 30.85421493 -10.82767195 30.17535069 -15.27964783 26.38768005 C-18.59445826 22.71451174 -20.07149977 20.1569385 -20.65464783 15.20018005 C-20.1775576 10.34976273 -18.49343353 7.03790579 -15.27964783 3.38768005 C-10.54228615 -0.45779537 -5.81283701 -0.03574227 0 0 Z " fill="#2E6EDF" transform="translate(394.27964782714844,464.61231994628906)"/>
<path d="M0 0 C1.32574647 -0.00761181 1.32574647 -0.00761181 2.6782757 -0.0153774 C4.14380304 -0.01612404 4.14380304 -0.01612404 5.638937 -0.01688576 C6.67222362 -0.02126801 7.70551024 -0.02565027 8.77010858 -0.03016531 C12.25538837 -0.04359029 15.74064286 -0.04974049 19.22594261 -0.0558567 C21.71568988 -0.06375481 24.205436 -0.07202358 26.69518089 -0.08063698 C34.18425017 -0.10462533 41.67331529 -0.11979114 49.16240984 -0.13269705 C51.27766832 -0.13640849 53.39292614 -0.14038177 55.50818396 -0.14444971 C68.64267162 -0.16968884 81.77716031 -0.19174279 94.91166687 -0.20417786 C97.95490205 -0.20710758 100.9981372 -0.21006924 104.0413723 -0.21308327 C104.79775896 -0.21382932 105.55414563 -0.21457537 106.3334531 -0.21534403 C118.58206014 -0.22799324 130.83052186 -0.26120937 143.07906099 -0.3028851 C155.6539419 -0.34532039 168.22874848 -0.36887484 180.8037008 -0.37409842 C187.86422114 -0.37751106 194.92451453 -0.38924828 201.98496437 -0.42220116 C208.62845483 -0.45315694 215.27162166 -0.45860951 221.91519737 -0.4468174 C224.35326549 -0.44659628 226.79135172 -0.45493282 229.22935677 -0.47247124 C232.55939487 -0.49512198 235.8879933 -0.48688526 239.21803856 -0.47098732 C240.6634894 -0.49181045 240.6634894 -0.49181045 242.13814127 -0.51305425 C248.45741764 -0.43878111 253.01622349 0.86486191 257.80943871 5.13701439 C260.60301952 9.85118202 261.40278091 13.69804415 260.80943871 19.13701439 C258.99573933 24.47142432 255.81517173 27.66188864 250.80943871 30.13701439 C247.32055996 30.83252359 243.92054809 30.80459551 240.37193871 30.75847435 C239.33367439 30.76486317 238.29541008 30.77125199 237.22568321 30.77783442 C233.7532073 30.79307176 230.28187456 30.77263013 226.80943871 30.75224876 C224.31732874 30.75575031 221.82522101 30.76140926 219.33312035 30.76906395 C213.27091105 30.78183686 207.20914803 30.77137619 201.1469965 30.74995071 C194.08398544 30.72590675 187.02105071 30.72765717 179.95800781 30.73025662 C167.35372771 30.73394479 154.74960541 30.7131387 142.14537621 30.67900658 C129.9213773 30.64591651 117.697544 30.63174853 105.47350121 30.63799095 C92.15488644 30.64475891 78.83634098 30.64228323 65.51773643 30.62263155 C64.46075884 30.62107232 64.46075884 30.62107232 63.38242817 30.61948159 C61.96727019 30.61739074 60.55211223 30.61527976 59.13695431 30.61314842 C54.2164159 30.60626022 49.29589889 30.60558229 44.37535667 30.60703087 C37.74986885 30.60862305 31.12455178 30.59369479 24.49910545 30.56780434 C22.06708803 30.56064072 19.63504956 30.55855984 17.20302391 30.56192207 C13.88411393 30.56563527 10.56578205 30.55089397 7.24693871 30.53142357 C6.28380257 30.53675149 5.32066643 30.54207942 4.32834435 30.5475688 C-1.86550642 30.48485045 -7.34714372 29.95543488 -11.96790504 25.37529564 C-15.00152814 20.33968559 -16.04455622 17.02009056 -15.19056129 11.13701439 C-11.93515955 4.86735177 -7.26797826 0.02209936 0 0 Z " fill="#2E6EDF" transform="translate(389.19056129455566,621.8629856109619)"/>
<path d="M0 0 C5.78590095 4.80818417 11.11221429 9.97022734 16.42358398 15.29418945 C17.3414418 16.21029495 18.25929962 17.12640045 19.20497131 18.07026672 C21.70267497 20.56344356 24.19724413 23.05973405 26.69109225 25.55676675 C29.30542204 28.17364026 31.92220426 30.78805965 34.53858948 33.40287781 C38.92392798 37.78640241 43.30716529 42.17201976 47.68920898 46.55883789 C52.7605999 51.63569032 57.83561072 56.70890282 62.91247696 61.78027946 C67.2753547 66.13862809 71.63629196 70.49891116 75.99559456 74.86083573 C78.59787469 77.46467714 81.20083128 80.06783264 83.80554008 82.66924477 C86.70061358 85.56090886 89.59160642 88.45661863 92.48217773 91.3527832 C93.35014984 92.21873108 94.21812195 93.08467896 95.11239624 93.97686768 C95.8932106 94.76050186 96.67402496 95.54413605 97.47850037 96.35151672 C98.16259696 97.03599034 98.84669355 97.72046396 99.55152035 98.42567921 C101 100 101 100 101 101 C90.7420809 101.09297112 80.48426321 101.16390204 70.22600746 101.20724869 C65.46188015 101.22806042 60.69804262 101.25625989 55.93408203 101.30175781 C51.33047032 101.34544564 46.72713611 101.36918527 42.12333298 101.37950897 C40.37316906 101.38685939 38.62301912 101.40121246 36.8729744 101.42292023 C25.70900366 101.55580291 15.94029095 101.51327302 7.125 93.8125 C0.43739874 87.1753078 -0.42712039 79.13494108 -0.46397209 70.13109207 C-0.45285805 67.55456492 -0.42207948 64.97869621 -0.390625 62.40234375 C-0.38315417 60.59917328 -0.37746522 58.79599464 -0.37347412 56.99281311 C-0.35828398 52.27280822 -0.31906016 47.55330451 -0.2746582 42.83349609 C-0.23356178 38.00690488 -0.21543256 33.18023179 -0.1953125 28.35351562 C-0.15255874 18.90212491 -0.0843887 9.45110432 0 0 Z " fill="#2E6EDF" transform="translate(556,300)"/>
</svg>
